<symbol xmlns="http://www.w3.org/2000/svg">
  <!-- Usage -->
  <!-- <svg class="nav-icon"><use xlink:href="assets/img/icons.svg#icon-xxx"></use></svg> -->

  <symbol id="icon-windows"       viewBox="0 0 14 16"><path d="M5 3h1v1h-1V3zM3 3h1v1h-1V3zM1 3h1v1H1V3zM13 13H1V5h12V13zM13 4H7v-1h6V4zM14 3c0-0.55-0.45-1-1-1H1c-0.55 0-1 0.45-1 1v10c0 0.55 0.45 1 1 1h12c0.55 0 1-0.45 1-1V3z" /></symbol>
  <symbol id="icon-menu"          viewBox="0 0 12 16"><path d="M11.41 9H0.59c-0.59 0-0.59-0.41-0.59-1s0-1 0.59-1h10.81c0.59 0 0.59 0.41 0.59 1s0 1-0.59 1z m0-4H0.59c-0.59 0-0.59-0.41-0.59-1s0-1 0.59-1h10.81c0.59 0 0.59 0.41 0.59 1s0 1-0.59 1zM0.59 11h10.81c0.59 0 0.59 0.41 0.59 1s0 1-0.59 1H0.59c-0.59 0-0.59-0.41-0.59-1s0-1 0.59-1z" /></symbol>
  <symbol id="icon-communication" viewBox="0 0 16 16"><path d="M10 1c-0.17 0-0.36 0.05-0.52 0.14-1.44 0.88-4.98 3.44-6.48 3.86-1.38 0-3 0.67-3 2.5s1.63 2.5 3 2.5c0.3 0.08 0.64 0.23 1 0.41v4.59h2V11.55c1.34 0.86 2.69 1.83 3.48 2.31 0.16 0.09 0.34 0.14 0.52 0.14 0.52 0 1-0.42 1-1V2c0-0.58-0.48-1-1-1z m0 12c-0.38-0.23-0.89-0.58-1.5-1-0.16-0.11-0.33-0.22-0.5-0.34V3.31c0.16-0.11 0.31-0.2 0.47-0.31 0.61-0.41 1.16-0.77 1.53-1v11z m2-6h4v1H12v-1z m0 2l4 2v1L12 10v-1z m4-6v1L12 6v-1l4-2z" /></symbol>
  <symbol id="icon-system"        viewBox="0 0 16 16"><path d="M8 5h-1v-1h1v1z m4 3h-1v1h1v-1zM5 5h-1v1h1v-1z m-1 3h-1v1h1v-1z m11-5.5l-0.5-0.5-6.5 5c-0.06-0.02-1 0-1 0-0.55 0-1 0.45-1 1v1c0 0.55 0.45 1 1 1h1c0.55 0 1-0.45 1-1v-0.92l6-5.58zM13.41 6.59c0.19 0.61 0.3 1.25 0.3 1.91 0 3.42-2.78 6.2-6.2 6.2S1.3 11.92 1.3 8.5s2.78-6.2 6.2-6.2c1.2 0 2.31 0.34 3.27 0.94l0.94-0.94c-1.19-0.81-2.64-1.3-4.2-1.3C3.36 1 0 4.36 0 8.5s3.36 7.5 7.5 7.5 7.5-3.36 7.5-7.5c0-1.03-0.2-2.02-0.59-2.91l-1 1z" /></symbol>
  <symbol id="icon-media"         viewBox="0 0 12 16"><path d="M6 5h2v2H6V5z m6-0.5v9.5c0 0.55-0.45 1-1 1H1c-0.55 0-1-0.45-1-1V2c0-0.55 0.45-1 1-1h7.5l3.5 3.5z m-1 0.5L8 2H1v11l3-5 2 4 2-2 3 3V5z" /></symbol>

  <symbol id="icon-graph" width="18" height="16" viewBox="0 0 1792 1792" xmlns="http://www.w3.org/2000/svg"><path d="M512 896v512h-256v-512h256zm384-512v1024h-256v-1024h256zm1024 1152v128h-2048v-1536h128v1408h1920zm-640-896v768h-256v-768h256zm384-384v1152h-256v-1152h256z"/></symbol>


  <symbol id="icon-history" viewBox="0 0 1792 1792" xmlns="http://www.w3.org/2000/svg"><path d="M1024 544v448q0 14-9 23t-23 9h-320q-14 0-23-9t-9-23v-64q0-14 9-23t23-9h224v-352q0-14 9-23t23-9h64q14 0 23 9t9 23zm416 352q0-148-73-273t-198-198-273-73-273 73-198 198-73 273 73 273 198 198 273 73 273-73 198-198 73-273zm224 0q0 209-103 385.5t-279.5 279.5-385.5 103-385.5-103-279.5-279.5-103-385.5 103-385.5 279.5-279.5 385.5-103 385.5 103 279.5 279.5 103 385.5z"/></symbol>
  <symbol id="icon-hardware" viewBox="0 0 1792 1792" xmlns="http://www.w3.org/2000/svg"><path d="M320 1168v96q0 16-16 16h-96q-16 0-16-16v-96q0-16 16-16h96q16 0 16 16zm128-256v96q0 16-16 16h-224q-16 0-16-16v-96q0-16 16-16h224q16 0 16 16zm-128-256v96q0 16-16 16h-96q-16 0-16-16v-96q0-16 16-16h96q16 0 16 16zm1024 512v96q0 16-16 16h-864q-16 0-16-16v-96q0-16 16-16h864q16 0 16 16zm-640-256v96q0 16-16 16h-96q-16 0-16-16v-96q0-16 16-16h96q16 0 16 16zm-128-256v96q0 16-16 16h-96q-16 0-16-16v-96q0-16 16-16h96q16 0 16 16zm384 256v96q0 16-16 16h-96q-16 0-16-16v-96q0-16 16-16h96q16 0 16 16zm-128-256v96q0 16-16 16h-96q-16 0-16-16v-96q0-16 16-16h96q16 0 16 16zm384 256v96q0 16-16 16h-96q-16 0-16-16v-96q0-16 16-16h96q16 0 16 16zm384 256v96q0 16-16 16h-96q-16 0-16-16v-96q0-16 16-16h96q16 0 16 16zm-512-512v96q0 16-16 16h-96q-16 0-16-16v-96q0-16 16-16h96q16 0 16 16zm256 0v96q0 16-16 16h-96q-16 0-16-16v-96q0-16 16-16h96q16 0 16 16zm256 0v352q0 16-16 16h-224q-16 0-16-16v-96q0-16 16-16h112v-240q0-16 16-16h96q16 0 16 16zm128 752v-896h-1664v896h1664zm128-896v896q0 53-37.5 90.5t-90.5 37.5h-1664q-53 0-90.5-37.5t-37.5-90.5v-896q0-53 37.5-90.5t90.5-37.5h1664q53 0 90.5 37.5t37.5 90.5z"/></symbol>
  <symbol id="icon-experiment" viewBox="0 0 1792 1792" xmlns="http://www.w3.org/2000/svg"><path d="M1591 1448q56 89 21.5 152.5t-140.5 63.5h-1152q-106 0-140.5-63.5t21.5-152.5l503-793v-399h-64q-26 0-45-19t-19-45 19-45 45-19h512q26 0 45 19t19 45-19 45-45 19h-64v399zm-779-725l-272 429h712l-272-429-20-31v-436h-128v436z"/></symbol>
  <symbol id="icon-presentation" viewBox="0 0 16 16"><path d="M15 2H1c-0.55 0-1 0.45-1 1v9c0 0.55 0.45 1 1 1h5.34c-0.25 0.61-0.86 1.39-2.34 2h8c-1.48-0.61-2.09-1.39-2.34-2h5.34c0.55 0 1-0.45 1-1V3c0-0.55-0.45-1-1-1z m0 9H1V3h14v8z" /></symbol>
  <symbol id="icon-file" viewBox="0 0 1792 1792" xmlns="http://www.w3.org/2000/svg"><path d="M1596 380q28 28 48 76t20 88v1152q0 40-28 68t-68 28h-1344q-40 0-68-28t-28-68v-1600q0-40 28-68t68-28h896q40 0 88 20t76 48zm-444-244v376h376q-10-29-22-41l-313-313q-12-12-41-22zm384 1528v-1024h-416q-40 0-68-28t-28-68v-416h-768v1536h1280z"/></symbol>
  <symbol id="icon-terminal" viewBox="0 0 1792 1792" xmlns="http://www.w3.org/2000/svg"><path d="M649 983l-466 466q-10 10-23 10t-23-10l-50-50q-10-10-10-23t10-23l393-393-393-393q-10-10-10-23t10-23l50-50q10-10 23-10t23 10l466 466q10 10 10 23t-10 23zm1079 457v64q0 14-9 23t-23 9h-960q-14 0-23-9t-9-23v-64q0-14 9-23t23-9h960q14 0 23 9t9 23z"/></symbol>
  <symbol id="icon-mobile" viewBox="0 0 1792 1792" xmlns="http://www.w3.org/2000/svg"><path d="M976 1408q0-33-23.5-56.5t-56.5-23.5-56.5 23.5-23.5 56.5 23.5 56.5 56.5 23.5 56.5-23.5 23.5-56.5zm208-160v-704q0-13-9.5-22.5t-22.5-9.5h-512q-13 0-22.5 9.5t-9.5 22.5v704q0 13 9.5 22.5t22.5 9.5h512q13 0 22.5-9.5t9.5-22.5zm-192-848q0-16-16-16h-160q-16 0-16 16t16 16h160q16 0 16-16zm288-16v1024q0 52-38 90t-90 38h-512q-52 0-90-38t-38-90v-1024q0-52 38-90t90-38h512q52 0 90 38t38 90z"/></symbol>
  <symbol id="icon-flash" viewBox="0 0 1792 1792" xmlns="http://www.w3.org/2000/svg"><path d="M1333 566q18 20 7 44l-540 1157q-13 25-42 25-4 0-14-2-17-5-25.5-19t-4.5-30l197-808-406 101q-4 1-12 1-18 0-31-11-18-15-13-39l201-825q4-14 16-23t28-9h328q19 0 32 12.5t13 29.5q0 8-5 18l-171 463 396-98q8-2 12-2 19 0 34 15z"/></symbol>
  <symbol id="icon-cogs" viewBox="0 0 1792 1792" xmlns="http://www.w3.org/2000/svg"><path d="M832 896q0-106-75-181t-181-75-181 75-75 181 75 181 181 75 181-75 75-181zm768 512q0-52-38-90t-90-38-90 38-38 90q0 53 37.5 90.5t90.5 37.5 90.5-37.5 37.5-90.5zm0-1024q0-52-38-90t-90-38-90 38-38 90q0 53 37.5 90.5t90.5 37.5 90.5-37.5 37.5-90.5zm-384 421v185q0 10-7 19.5t-16 10.5l-155 24q-11 35-32 76 34 48 90 115 7 10 7 20 0 12-7 19-23 30-82.5 89.5t-78.5 59.5q-11 0-21-7l-115-90q-37 19-77 31-11 108-23 155-7 24-30 24h-186q-11 0-20-7.5t-10-17.5l-23-153q-34-10-75-31l-118 89q-7 7-20 7-11 0-21-8-144-133-144-160 0-9 7-19 10-14 41-53t47-61q-23-44-35-82l-152-24q-10-1-17-9.5t-7-19.5v-185q0-10 7-19.5t16-10.5l155-24q11-35 32-76-34-48-90-115-7-11-7-20 0-12 7-20 22-30 82-89t79-59q11 0 21 7l115 90q34-18 77-32 11-108 23-154 7-24 30-24h186q11 0 20 7.5t10 17.5l23 153q34 10 75 31l118-89q8-7 20-7 11 0 21 8 144 133 144 160 0 9-7 19-12 16-42 54t-45 60q23 48 34 82l152 23q10 2 17 10.5t7 19.5zm640 533v140q0 16-149 31-12 27-30 52 51 113 51 138 0 4-4 7-122 71-124 71-8 0-46-47t-52-68q-20 2-30 2t-30-2q-14 21-52 68t-46 47q-2 0-124-71-4-3-4-7 0-25 51-138-18-25-30-52-149-15-149-31v-140q0-16 149-31 13-29 30-52-51-113-51-138 0-4 4-7 4-2 35-20t59-34 30-16q8 0 46 46.5t52 67.5q20-2 30-2t30 2q51-71 92-112l6-2q4 0 124 70 4 3 4 7 0 25-51 138 17 23 30 52 149 15 149 31zm0-1024v140q0 16-149 31-12 27-30 52 51 113 51 138 0 4-4 7-122 71-124 71-8 0-46-47t-52-68q-20 2-30 2t-30-2q-14 21-52 68t-46 47q-2 0-124-71-4-3-4-7 0-25 51-138-18-25-30-52-149-15-149-31v-140q0-16 149-31 13-29 30-52-51-113-51-138 0-4 4-7 4-2 35-20t59-34 30-16q8 0 46 46.5t52 67.5q20-2 30-2t30 2q51-71 92-112l6-2q4 0 124 70 4 3 4 7 0 25-51 138 17 23 30 52 149 15 149 31z"/></symbol>
  <symbol id="icon-beer" viewBox="0 0 1792 1792" xmlns="http://www.w3.org/2000/svg"><path d="M704 896v-384h-256v256q0 53 37.5 90.5t90.5 37.5h128zm1024 448v192h-1152v-192l128-192h-128q-159 0-271.5-112.5t-112.5-271.5v-320l-64-64 32-128h480l32-128h960l32 192-64 32v800z"/></symbol>
  <symbol id="icon-code" viewBox="0 0 1792 1792" xmlns="http://www.w3.org/2000/svg"><path d="M553 1399l-50 50q-10 10-23 10t-23-10l-466-466q-10-10-10-23t10-23l466-466q10-10 23-10t23 10l50 50q10 10 10 23t-10 23l-393 393 393 393q10 10 10 23t-10 23zm591-1067l-373 1291q-4 13-15.5 19.5t-23.5 2.5l-62-17q-13-4-19.5-15.5t-2.5-24.5l373-1291q4-13 15.5-19.5t23.5-2.5l62 17q13 4 19.5 15.5t2.5 24.5zm657 651l-466 466q-10 10-23 10t-23-10l-50-50q-10-10-10-23t10-23l393-393-393-393q-10-10-10-23t10-23l50-50q10-10 23-10t23 10l466 466q10 10 10 23t-10 23z"/></symbol>
  <symbol id="icon-list" viewBox="0 0 1792 1792" xmlns="http://www.w3.org/2000/svg"><path d="M256 1312v192q0 13-9.5 22.5t-22.5 9.5h-192q-13 0-22.5-9.5t-9.5-22.5v-192q0-13 9.5-22.5t22.5-9.5h192q13 0 22.5 9.5t9.5 22.5zm0-384v192q0 13-9.5 22.5t-22.5 9.5h-192q-13 0-22.5-9.5t-9.5-22.5v-192q0-13 9.5-22.5t22.5-9.5h192q13 0 22.5 9.5t9.5 22.5zm0-384v192q0 13-9.5 22.5t-22.5 9.5h-192q-13 0-22.5-9.5t-9.5-22.5v-192q0-13 9.5-22.5t22.5-9.5h192q13 0 22.5 9.5t9.5 22.5zm1536 768v192q0 13-9.5 22.5t-22.5 9.5h-1344q-13 0-22.5-9.5t-9.5-22.5v-192q0-13 9.5-22.5t22.5-9.5h1344q13 0 22.5 9.5t9.5 22.5zm-1536-1152v192q0 13-9.5 22.5t-22.5 9.5h-192q-13 0-22.5-9.5t-9.5-22.5v-192q0-13 9.5-22.5t22.5-9.5h192q13 0 22.5 9.5t9.5 22.5zm1536 768v192q0 13-9.5 22.5t-22.5 9.5h-1344q-13 0-22.5-9.5t-9.5-22.5v-192q0-13 9.5-22.5t22.5-9.5h1344q13 0 22.5 9.5t9.5 22.5zm0-384v192q0 13-9.5 22.5t-22.5 9.5h-1344q-13 0-22.5-9.5t-9.5-22.5v-192q0-13 9.5-22.5t22.5-9.5h1344q13 0 22.5 9.5t9.5 22.5zm0-384v192q0 13-9.5 22.5t-22.5 9.5h-1344q-13 0-22.5-9.5t-9.5-22.5v-192q0-13 9.5-22.5t22.5-9.5h1344q13 0 22.5 9.5t9.5 22.5z"/></symbol>
  <symbol id="icon-star" viewBox="0 0 1792 1792" xmlns="http://www.w3.org/2000/svg"><path d="M1728 647q0 22-26 48l-363 354 86 500q1 7 1 20 0 21-10.5 35.5t-30.5 14.5q-19 0-40-12l-449-236-449 236q-22 12-40 12-21 0-31.5-14.5t-10.5-35.5q0-6 2-20l86-500-364-354q-25-27-25-48 0-37 56-46l502-73 225-455q19-41 49-41t49 41l225 455 502 73q56 9 56 46z"/></symbol>

  <!-- <> with 3> by GitHub (770x88) -->
  <symbol id="icon-love" viewBox="0 0 770 88" stroke="none" stroke-width="1" fill="none" fill-rule="evenodd">
    <g fill="currentColor">
      <g transform="translate(489.000000, 0.000000)">
        <path d="M262.2,24.7 C254.7,24.7 249.7,28 249.7,28 L249.7,4.5 C249.7,3.9 249.2,3.4 248.6,3.4 L235.3,3.4 C234.7,3.4 234.2,3.9 234.2,4.5 L234.2,73.8 C234.2,74.4 234.7,74.9 235.3,74.9 L244.5,74.9 C244.9,74.9 245.2,74.7 245.5,74.3 C245.7,73.9 246.1,71.1 246.1,71.1 C246.1,71.1 251.5,76.2 261.8,76.2 C273.9,76.2 280.8,70.1 280.8,48.7 C280.7,27.5 269.6,24.7 262.2,24.7 L262.2,24.7 Z M257,63.7 C252.4,63.6 249.4,61.5 249.4,61.5 L249.4,39.6 C249.4,39.6 252.4,37.7 256.2,37.4 C260.9,37 265.5,38.4 265.5,49.7 C265.4,61.6 263.4,63.9 257,63.7 L257,63.7 Z"></path>
        <path d="M226.3,26.2 L213.2,26.2 C212.6,26.2 212.1,26.7 212.1,27.3 L212.1,61.3 C212.1,61.3 208.8,63.7 204,63.7 C199.3,63.7 198,61.6 198,56.9 L198,27.3 C198,26.7 197.5,26.2 196.9,26.2 L183.6,26.2 C183,26.2 182.5,26.7 182.5,27.3 L182.5,59.2 C182.5,73 190.2,76.3 200.7,76.3 C209.4,76.3 216.4,71.5 216.4,71.5 C216.4,71.5 216.7,74 216.9,74.3 C217.1,74.6 217.4,74.9 217.9,74.9 L226.4,74.9 C227,74.9 227.5,74.4 227.5,73.8 L227.5,27.3 C227.4,26.7 226.9,26.2 226.3,26.2 L226.3,26.2 Z"></path>
        <path d="M176,4.6 C176,4 175.5,3.5 174.9,3.5 L161.7,3.5 C161.1,3.5 160.6,4 160.6,4.6 L160.6,30.2 L140,30.2 L140,4.6 C140,4 139.5,3.5 138.9,3.5 L125.7,3.5 C125.1,3.5 124.6,4 124.6,4.6 L124.6,73.9 C124.6,74.5 125.1,75 125.7,75 L138.9,75 C139.5,75 140,74.5 140,73.9 L140,44.3 L160.6,44.3 L160.6,73.9 C160.6,74.5 161.1,75 161.7,75 L175,75 C175.6,75 176.1,74.5 176.1,73.9 L176.1,4.6 L176,4.6 Z"></path>
        <path d="M116.9,26.1 L107,26.1 L107,13 C107,12.5 106.7,12.3 106.2,12.3 L92.7,12.3 C92.2,12.3 91.9,12.5 91.9,13 L91.9,26.6 C91.9,26.6 85.1,28.2 84.7,28.4 C84.2,28.5 83.9,29 83.9,29.5 L83.9,38 C83.9,38.6 84.4,39.1 85,39.1 L91.9,39.1 L91.9,59.6 C91.9,74.8 102.6,76.3 109.8,76.3 C113.1,76.3 117,75.2 117.7,75 C118.1,74.9 118.3,74.4 118.3,74 L118.3,64.6 C118.3,64 117.8,63.5 117.2,63.5 C116.6,63.5 115.1,63.7 113.6,63.7 C108.7,63.7 107.1,61.4 107.1,58.5 L107.1,39 L117,39 C117.6,39 118.1,38.5 118.1,37.9 L118.1,27.2 C118,26.6 117.5,26.1 116.9,26.1 L116.9,26.1 Z"></path>
        <path d="M78.8,59.2 L78.8,27.2 C78.8,26.6 78.3,26.1 77.7,26.1 L64.5,26.1 C63.9,26.1 63.4,26.7 63.4,27.3 L63.4,73.1 C63.4,74.4 64.2,74.8 65.3,74.8 L77.2,74.8 C78.5,74.8 78.8,74.2 78.8,73 C78.8,70.7 78.8,61.1 78.8,59.2 Z M79.8,13.7 C79.8,8.9 76,5.1 71.3,5.1 C66.6,5.1 62.8,9 62.8,13.7 C62.8,18.5 66.6,22.3 71.3,22.3 C76,22.3 79.8,18.4 79.8,13.7 Z"></path>
        <path d="M54.8,33.1 L31.3,33.1 C30.7,33.1 30.2,33.6 30.2,34.2 L30.2,45.7 C30.2,46.3 30.7,46.8 31.3,46.8 L40.5,46.8 L40.5,61.1 C40.5,61.1 38.4,61.8 32.7,61.8 C26,61.8 16.6,59.3 16.6,38.7 C16.6,18.1 26.4,15.3 35.5,15.3 C43.4,15.3 46.9,16.7 49,17.4 C49.7,17.6 50.3,16.9 50.3,16.3 L52.9,5.2 C52.9,4.9 52.8,4.6 52.5,4.3 C51.6,3.7 46.2,0.7 32.6,0.7 C16.9,0.7 0.8,7.4 0.8,39.5 C0.8,71.6 19.2,76.4 34.8,76.4 C47.7,76.4 55.5,70.9 55.5,70.9 C55.8,70.7 55.9,70.3 55.9,70.1 L55.9,34.2 C55.9,33.6 55.4,33.1 54.8,33.1 L54.8,33.1 Z"></path>
      </g>
      <g transform="translate(383.000000, 13.000000)">
        <path d="M44.9,16.5 L54.9,16.5 L65.7,47.4 L65.9,47.4 L76.4,16.5 L85.9,16.5 L69.8,60.1 C69.1,62 68.3,63.8 67.6,65.5 C66.9,67.2 66,68.7 65,70 C64,71.3 62.7,72.3 61.1,73.1 C59.5,73.9 57.6,74.3 55.2,74.3 C53.1,74.3 51,74.1 48.9,73.8 L48.9,66.1 C49.6,66.2 50.4,66.3 51.1,66.5 C51.8,66.6 52.5,66.7 53.3,66.7 C54.4,66.7 55.2,66.6 55.9,66.3 C56.6,66 57.2,65.6 57.6,65.1 C58.1,64.6 58.4,64 58.8,63.3 C59.1,62.6 59.4,61.8 59.7,60.9 L60.7,57.7 L44.9,16.5 L44.9,16.5 Z"></path>
        <path d="M0.8,0.8 L9.9,0.8 L9.9,21.9 L10.1,21.9 C10.7,20.9 11.5,20 12.4,19.2 C13.3,18.4 14.3,17.7 15.4,17.2 C16.5,16.6 17.6,16.2 18.8,15.9 C20,15.6 21.2,15.5 22.4,15.5 C25.7,15.5 28.5,16.1 30.9,17.2 C33.3,18.3 35.3,19.9 36.9,21.9 C38.5,23.9 39.7,26.2 40.5,28.9 C41.3,31.6 41.7,34.4 41.7,37.5 C41.7,40.3 41.3,43 40.6,45.6 C39.9,48.2 38.8,50.5 37.3,52.5 C35.8,54.5 34,56.1 31.7,57.3 C29.5,58.5 26.8,59.1 23.8,59.1 C22.4,59.1 21,59 19.6,58.8 C18.2,58.6 16.8,58.3 15.6,57.7 C14.3,57.2 13.2,56.5 12.1,55.6 C11.1,54.7 10.2,53.6 9.5,52.2 L9.3,52.2 L9.3,57.9 L0.7,57.9 L0.7,0.8 L0.8,0.8 Z M32.7,37.2 C32.7,35.3 32.5,33.5 32,31.8 C31.5,30 30.8,28.5 29.8,27.1 C28.8,25.7 27.6,24.6 26.2,23.8 C24.8,23 23.1,22.6 21.2,22.6 C17.4,22.6 14.5,23.9 12.5,26.6 C10.6,29.3 9.6,32.8 9.6,37.2 C9.6,39.3 9.9,41.2 10.4,43 C10.9,44.8 11.7,46.3 12.7,47.6 C13.7,48.9 14.9,49.9 16.3,50.6 C17.7,51.3 19.4,51.7 21.2,51.7 C23.3,51.7 25,51.3 26.5,50.4 C27.9,49.5 29.1,48.4 30.1,47.1 C31,45.7 31.7,44.2 32.1,42.5 C32.5,40.8 32.7,39.1 32.7,37.2 L32.7,37.2 Z"></path>
      </g>
      <path d="M321.7,79.1 C360.9,48.2 359.4,37.3 359.4,28.8 C359.4,20.3 352.3,9.9 340.5,9.9 C328.7,9.9 321.6,22.5 321.6,22.5 C321.6,22.5 314.5,9.9 302.7,9.9 C290.9,9.9 283.8,20.2 283.8,28.8 C284,37.3 282.5,48.2 321.7,79.1 L321.7,79.1 Z"></path>
      <g transform="translate(112.000000, 13.000000)">
        <path d="M112.2,0.4 L121.3,0.4 L121.3,21.6 L121.5,21.6 C122.6,19.7 124.3,18.2 126.5,16.9 C128.7,15.6 131.2,15 133.9,15 C138.4,15 142,16.2 144.6,18.5 C147.2,20.8 148.5,24.4 148.5,29.1 L148.5,57.5 L139.4,57.5 L139.4,31.5 C139.3,28.2 138.6,25.9 137.3,24.4 C136,22.9 134,22.2 131.3,22.2 C129.8,22.2 128.4,22.5 127.1,23 C125.8,23.5 124.8,24.3 124,25.3 C123.1,26.3 122.5,27.4 122,28.8 C121.5,30.1 121.3,31.5 121.3,33 L121.3,57.4 L112.2,57.4 L112.2,0.4 L112.2,0.4 Z"></path>
        <path d="M81.5,16.2 L88.4,16.2 L88.4,3.8 L97.5,3.8 L97.5,16.2 L105.7,16.2 L105.7,23 L97.5,23 L97.5,45.1 C97.5,46.1 97.5,46.9 97.6,47.6 C97.7,48.3 97.9,48.9 98.2,49.4 C98.5,49.9 98.9,50.2 99.5,50.5 C100.1,50.7 100.9,50.9 101.9,50.9 L103.8,50.9 C104.4,50.9 105.1,50.8 105.7,50.6 L105.7,57.6 C104.7,57.7 103.7,57.8 102.7,57.9 C101.7,58 100.8,58.1 99.7,58.1 C97.3,58.1 95.4,57.9 93.9,57.4 C92.4,56.9 91.3,56.3 90.5,55.4 C89.7,54.5 89.1,53.4 88.8,52.1 C88.5,50.8 88.3,49.2 88.3,47.5 L88.3,23 L81.4,23 L81.4,16.2 L81.5,16.2 Z"></path>
        <path d="M66.6,0.4 L75.7,0.4 L75.7,9 L66.6,9 L66.6,0.4 L66.6,0.4 Z M66.6,16.2 L75.7,16.2 L75.7,57.6 L66.6,57.6 L66.6,16.2 L66.6,16.2 Z"></path>
        <path d="M0.3,16.2 L10,16.2 L18.1,47.1 L18.3,47.1 L26.1,16.2 L35.3,16.2 L42.7,47.1 L42.9,47.1 L51.3,16.2 L60.6,16.2 L47.6,57.6 L38.2,57.6 L30.5,26.9 L30.3,26.9 L22.7,57.6 L13.1,57.6 L0.3,16.2 L0.3,16.2 Z"></path>
      </g>
      <path d="M62.5,11.4 L52.7,21.2 L75.6,44.1 L52.7,67 L62.5,76.8 L92,44.1 L62.5,11.4 L62.5,11.4 Z M29.8,11.4 L0.3,44.1 L29.8,76.8 L39.6,67 L16.7,44.1 L39.6,21.2 L29.8,11.4 L29.8,11.4 Z"></path>
    </g>
  </symbol>

  <!-- Electron (32x32) -->
  <symbol id="icon-electron" viewBox="0 0 32 32" stroke-width="1.25" stroke-linecap="round" stroke="none" fill="none" fill-rule="evenodd">
    <path fill="currentColor" d="M16.3166155,18.3358593 C15.5069762,18.5107902 14.7093189,17.9962674 14.5340397,17.1866556 C14.3594452,16.3770439 14.8736432,15.5794137 15.6832825,15.4041405 C16.4929217,15.2292096 17.290579,15.7437324 17.4658582,16.5533441 C17.6407951,17.3629559 17.1262548,18.160586 16.3166155,18.3358593 Z"></path>
    <path stroke="currentColor" d="M11.7054423,7.72924079 C7.9200573,7.04629995 4.81451128,7.69646414 3.61603618,9.7527007 C2.7268637,11.2782634 3.03921758,13.3173666 4.27645322,15.4549657 M6.32821425,18.1957705 C7.8943718,19.9006249 9.96996963,21.5565889 12.4163991,22.9557106 C18.2481396,26.2909038 24.3022575,27.0886771 27.1773167,25.1467919 M29.8571429,24.0660377 C29.8571429,23.2063492 29.1535903,22.509434 28.2857143,22.509434 C27.4178383,22.509434 26.7142857,23.2063492 26.7142857,24.0660377 C26.7142857,24.9257263 27.4178383,25.6226415 28.2857143,25.6226415 C29.1535903,25.6226415 29.8571429,24.9257263 29.8571429,24.0660377 L29.8571429,24.0660377 Z"></path>
    <path stroke="currentColor" d="M26.111681,17.7066994 C28.5900052,14.8065666 29.5677707,11.8255392 28.3717915,9.77358491 C27.4971801,8.27300481 25.6069305,7.52124894 23.1780058,7.48995855 M19.7043666,7.86367207 C17.4117923,8.35023224 14.9002093,9.30797986 12.4285714,10.7215184 C6.42471468,14.1551455 2.65428623,19.1356706 3.16600907,22.5894353 M3.68571472,25.6226415 C4.55359076,25.6226415 5.25714329,24.9257263 5.25714329,24.0660377 C5.25714329,23.2063492 4.55359076,22.509434 3.68571472,22.509434 C2.81783869,22.509434 2.11428615,23.2063492 2.11428615,24.0660377 C2.11428615,24.9257263 2.81783869,25.6226415 3.68571472,25.6226415 L3.68571472,25.6226415 L3.68571472,25.6226415 Z"></path>
    <path stroke="currentColor" d="M10.1890404,25.079941 C11.4849109,28.6643405 13.604776,31 16,31 C17.7357744,31 19.3269404,29.7733976 20.5647004,27.7338484 M22.0592036,24.34604 C22.7459106,22.1722862 23.1428571,19.6025086 23.1428571,16.8490566 C23.1428571,10.0917401 20.752155,4.44064506 17.5550163,3.03441104 M16,4.25471698 C16.867876,4.25471698 17.5714286,3.55780173 17.5714286,2.69811321 C17.5714286,1.83842468 16.867876,1.14150943 16,1.14150943 C15.132124,1.14150943 14.4285714,1.83842468 14.4285714,2.69811321 C14.4285714,3.55780173 15.132124,4.25471698 16,4.25471698 Z"></path>
  </symbol>
</svg>
