<svg xmlns="http://www.w3.org/2000/svg">
  <!-- Usage -->
  <!-- <svg class="nav-icon"><use xlink:href="assets/img/icons.svg#icon-xxx"></use></svg> -->

  <symbol id="icon-windows"       viewBox="0 0 14 16"><path d="M5 3h1v1h-1V3zM3 3h1v1h-1V3zM1 3h1v1H1V3zM13 13H1V5h12V13zM13 4H7v-1h6V4zM14 3c0-0.55-0.45-1-1-1H1c-0.55 0-1 0.45-1 1v10c0 0.55 0.45 1 1 1h12c0.55 0 1-0.45 1-1V3z" /></symbol>
  <symbol id="icon-menu"          viewBox="0 0 12 16"><path d="M11.41 9H0.59c-0.59 0-0.59-0.41-0.59-1s0-1 0.59-1h10.81c0.59 0 0.59 0.41 0.59 1s0 1-0.59 1z m0-4H0.59c-0.59 0-0.59-0.41-0.59-1s0-1 0.59-1h10.81c0.59 0 0.59 0.41 0.59 1s0 1-0.59 1zM0.59 11h10.81c0.59 0 0.59 0.41 0.59 1s0 1-0.59 1H0.59c-0.59 0-0.59-0.41-0.59-1s0-1 0.59-1z" /></symbol>
  <symbol id="icon-communication" viewBox="0 0 16 16"><path d="M10 1c-0.17 0-0.36 0.05-0.52 0.14-1.44 0.88-4.98 3.44-6.48 3.86-1.38 0-3 0.67-3 2.5s1.63 2.5 3 2.5c0.3 0.08 0.64 0.23 1 0.41v4.59h2V11.55c1.34 0.86 2.69 1.83 3.48 2.31 0.16 0.09 0.34 0.14 0.52 0.14 0.52 0 1-0.42 1-1V2c0-0.58-0.48-1-1-1z m0 12c-0.38-0.23-0.89-0.58-1.5-1-0.16-0.11-0.33-0.22-0.5-0.34V3.31c0.16-0.11 0.31-0.2 0.47-0.31 0.61-0.41 1.16-0.77 1.53-1v11z m2-6h4v1H12v-1z m0 2l4 2v1L12 10v-1z m4-6v1L12 6v-1l4-2z" /></symbol>
  <symbol id="icon-system"        viewBox="0 0 16 16"><path d="M8 5h-1v-1h1v1z m4 3h-1v1h1v-1zM5 5h-1v1h1v-1z m-1 3h-1v1h1v-1z m11-5.5l-0.5-0.5-6.5 5c-0.06-0.02-1 0-1 0-0.55 0-1 0.45-1 1v1c0 0.55 0.45 1 1 1h1c0.55 0 1-0.45 1-1v-0.92l6-5.58zM13.41 6.59c0.19 0.61 0.3 1.25 0.3 1.91 0 3.42-2.78 6.2-6.2 6.2S1.3 11.92 1.3 8.5s2.78-6.2 6.2-6.2c1.2 0 2.31 0.34 3.27 0.94l0.94-0.94c-1.19-0.81-2.64-1.3-4.2-1.3C3.36 1 0 4.36 0 8.5s3.36 7.5 7.5 7.5 7.5-3.36 7.5-7.5c0-1.03-0.2-2.02-0.59-2.91l-1 1z" /></symbol>
  <symbol id="icon-media"         viewBox="0 0 12 16"><path d="M6 5h2v2H6V5z m6-0.5v9.5c0 0.55-0.45 1-1 1H1c-0.55 0-1-0.45-1-1V2c0-0.55 0.45-1 1-1h7.5l3.5 3.5z m-1 0.5L8 2H1v11l3-5 2 4 2-2 3 3V5z" /></symbol>

  <symbol id="icon-graph" width="18" height="16" viewBox="0 0 1792 1792" xmlns="http://www.w3.org/2000/svg"><path d="M512 896v512h-256v-512h256zm384-512v1024h-256v-1024h256zm1024 1152v128h-2048v-1536h128v1408h1920zm-640-896v768h-256v-768h256zm384-384v1152h-256v-1152h256z"/></symbol>


  <symbol id="icon-history" viewBox="0 0 1792 1792" xmlns="http://www.w3.org/2000/svg"><path d="M1024 544v448q0 14-9 23t-23 9h-320q-14 0-23-9t-9-23v-64q0-14 9-23t23-9h224v-352q0-14 9-23t23-9h64q14 0 23 9t9 23zm416 352q0-148-73-273t-198-198-273-73-273 73-198 198-73 273 73 273 198 198 273 73 273-73 198-198 73-273zm224 0q0 209-103 385.5t-279.5 279.5-385.5 103-385.5-103-279.5-279.5-103-385.5 103-385.5 279.5-279.5 385.5-103 385.5 103 279.5 279.5 103 385.5z"/></symbol>
  <symbol id="icon-hardware" viewBox="0 0 1792 1792" xmlns="http://www.w3.org/2000/svg"><path d="M320 1168v96q0 16-16 16h-96q-16 0-16-16v-96q0-16 16-16h96q16 0 16 16zm128-256v96q0 16-16 16h-224q-16 0-16-16v-96q0-16 16-16h224q16 0 16 16zm-128-256v96q0 16-16 16h-96q-16 0-16-16v-96q0-16 16-16h96q16 0 16 16zm1024 512v96q0 16-16 16h-864q-16 0-16-16v-96q0-16 16-16h864q16 0 16 16zm-640-256v96q0 16-16 16h-96q-16 0-16-16v-96q0-16 16-16h96q16 0 16 16zm-128-256v96q0 16-16 16h-96q-16 0-16-16v-96q0-16 16-16h96q16 0 16 16zm384 256v96q0 16-16 16h-96q-16 0-16-16v-96q0-16 16-16h96q16 0 16 16zm-128-256v96q0 16-16 16h-96q-16 0-16-16v-96q0-16 16-16h96q16 0 16 16zm384 256v96q0 16-16 16h-96q-16 0-16-16v-96q0-16 16-16h96q16 0 16 16zm384 256v96q0 16-16 16h-96q-16 0-16-16v-96q0-16 16-16h96q16 0 16 16zm-512-512v96q0 16-16 16h-96q-16 0-16-16v-96q0-16 16-16h96q16 0 16 16zm256 0v96q0 16-16 16h-96q-16 0-16-16v-96q0-16 16-16h96q16 0 16 16zm256 0v352q0 16-16 16h-224q-16 0-16-16v-96q0-16 16-16h112v-240q0-16 16-16h96q16 0 16 16zm128 752v-896h-1664v896h1664zm128-896v896q0 53-37.5 90.5t-90.5 37.5h-1664q-53 0-90.5-37.5t-37.5-90.5v-896q0-53 37.5-90.5t90.5-37.5h1664q53 0 90.5 37.5t37.5 90.5z"/></symbol>
  <symbol id="icon-experiment" viewBox="0 0 1792 1792" xmlns="http://www.w3.org/2000/svg"><path d="M1591 1448q56 89 21.5 152.5t-140.5 63.5h-1152q-106 0-140.5-63.5t21.5-152.5l503-793v-399h-64q-26 0-45-19t-19-45 19-45 45-19h512q26 0 45 19t19 45-19 45-45 19h-64v399zm-779-725l-272 429h712l-272-429-20-31v-436h-128v436z"/></symbol>
  <symbol id="icon-presentation" viewBox="0 0 16 16"><path d="M15 2H1c-0.55 0-1 0.45-1 1v9c0 0.55 0.45 1 1 1h5.34c-0.25 0.61-0.86 1.39-2.34 2h8c-1.48-0.61-2.09-1.39-2.34-2h5.34c0.55 0 1-0.45 1-1V3c0-0.55-0.45-1-1-1z m0 9H1V3h14v8z" /></symbol>
  <symbol id="icon-file" viewBox="0 0 1792 1792" xmlns="http://www.w3.org/2000/svg"><path d="M1596 380q28 28 48 76t20 88v1152q0 40-28 68t-68 28h-1344q-40 0-68-28t-28-68v-1600q0-40 28-68t68-28h896q40 0 88 20t76 48zm-444-244v376h376q-10-29-22-41l-313-313q-12-12-41-22zm384 1528v-1024h-416q-40 0-68-28t-28-68v-416h-768v1536h1280z"/></symbol>
  <symbol id="icon-terminal" viewBox="0 0 1792 1792" xmlns="http://www.w3.org/2000/svg"><path d="M649 983l-466 466q-10 10-23 10t-23-10l-50-50q-10-10-10-23t10-23l393-393-393-393q-10-10-10-23t10-23l50-50q10-10 23-10t23 10l466 466q10 10 10 23t-10 23zm1079 457v64q0 14-9 23t-23 9h-960q-14 0-23-9t-9-23v-64q0-14 9-23t23-9h960q14 0 23 9t9 23z"/></symbol>
  <symbol id="icon-mobile" viewBox="0 0 1792 1792" xmlns="http://www.w3.org/2000/svg"><path d="M976 1408q0-33-23.5-56.5t-56.5-23.5-56.5 23.5-23.5 56.5 23.5 56.5 56.5 23.5 56.5-23.5 23.5-56.5zm208-160v-704q0-13-9.5-22.5t-22.5-9.5h-512q-13 0-22.5 9.5t-9.5 22.5v704q0 13 9.5 22.5t22.5 9.5h512q13 0 22.5-9.5t9.5-22.5zm-192-848q0-16-16-16h-160q-16 0-16 16t16 16h160q16 0 16-16zm288-16v1024q0 52-38 90t-90 38h-512q-52 0-90-38t-38-90v-1024q0-52 38-90t90-38h512q52 0 90 38t38 90z"/></symbol>
  <symbol id="icon-flash" viewBox="0 0 1792 1792" xmlns="http://www.w3.org/2000/svg"><path d="M1333 566q18 20 7 44l-540 1157q-13 25-42 25-4 0-14-2-17-5-25.5-19t-4.5-30l197-808-406 101q-4 1-12 1-18 0-31-11-18-15-13-39l201-825q4-14 16-23t28-9h328q19 0 32 12.5t13 29.5q0 8-5 18l-171 463 396-98q8-2 12-2 19 0 34 15z"/></symbol>
  <symbol id="icon-cogs" viewBox="0 0 1792 1792" xmlns="http://www.w3.org/2000/svg"><path d="M832 896q0-106-75-181t-181-75-181 75-75 181 75 181 181 75 181-75 75-181zm768 512q0-52-38-90t-90-38-90 38-38 90q0 53 37.5 90.5t90.5 37.5 90.5-37.5 37.5-90.5zm0-1024q0-52-38-90t-90-38-90 38-38 90q0 53 37.5 90.5t90.5 37.5 90.5-37.5 37.5-90.5zm-384 421v185q0 10-7 19.5t-16 10.5l-155 24q-11 35-32 76 34 48 90 115 7 10 7 20 0 12-7 19-23 30-82.5 89.5t-78.5 59.5q-11 0-21-7l-115-90q-37 19-77 31-11 108-23 155-7 24-30 24h-186q-11 0-20-7.5t-10-17.5l-23-153q-34-10-75-31l-118 89q-7 7-20 7-11 0-21-8-144-133-144-160 0-9 7-19 10-14 41-53t47-61q-23-44-35-82l-152-24q-10-1-17-9.5t-7-19.5v-185q0-10 7-19.5t16-10.5l155-24q11-35 32-76-34-48-90-115-7-11-7-20 0-12 7-20 22-30 82-89t79-59q11 0 21 7l115 90q34-18 77-32 11-108 23-154 7-24 30-24h186q11 0 20 7.5t10 17.5l23 153q34 10 75 31l118-89q8-7 20-7 11 0 21 8 144 133 144 160 0 9-7 19-12 16-42 54t-45 60q23 48 34 82l152 23q10 2 17 10.5t7 19.5zm640 533v140q0 16-149 31-12 27-30 52 51 113 51 138 0 4-4 7-122 71-124 71-8 0-46-47t-52-68q-20 2-30 2t-30-2q-14 21-52 68t-46 47q-2 0-124-71-4-3-4-7 0-25 51-138-18-25-30-52-149-15-149-31v-140q0-16 149-31 13-29 30-52-51-113-51-138 0-4 4-7 4-2 35-20t59-34 30-16q8 0 46 46.5t52 67.5q20-2 30-2t30 2q51-71 92-112l6-2q4 0 124 70 4 3 4 7 0 25-51 138 17 23 30 52 149 15 149 31zm0-1024v140q0 16-149 31-12 27-30 52 51 113 51 138 0 4-4 7-122 71-124 71-8 0-46-47t-52-68q-20 2-30 2t-30-2q-14 21-52 68t-46 47q-2 0-124-71-4-3-4-7 0-25 51-138-18-25-30-52-149-15-149-31v-140q0-16 149-31 13-29 30-52-51-113-51-138 0-4 4-7 4-2 35-20t59-34 30-16q8 0 46 46.5t52 67.5q20-2 30-2t30 2q51-71 92-112l6-2q4 0 124 70 4 3 4 7 0 25-51 138 17 23 30 52 149 15 149 31z"/></symbol>
  <symbol id="icon-beer" viewBox="0 0 1792 1792" xmlns="http://www.w3.org/2000/svg"><path d="M704 896v-384h-256v256q0 53 37.5 90.5t90.5 37.5h128zm1024 448v192h-1152v-192l128-192h-128q-159 0-271.5-112.5t-112.5-271.5v-320l-64-64 32-128h480l32-128h960l32 192-64 32v800z"/></symbol>
  <symbol id="icon-code" viewBox="0 0 1792 1792" xmlns="http://www.w3.org/2000/svg"><path d="M553 1399l-50 50q-10 10-23 10t-23-10l-466-466q-10-10-10-23t10-23l466-466q10-10 23-10t23 10l50 50q10 10 10 23t-10 23l-393 393 393 393q10 10 10 23t-10 23zm591-1067l-373 1291q-4 13-15.5 19.5t-23.5 2.5l-62-17q-13-4-19.5-15.5t-2.5-24.5l373-1291q4-13 15.5-19.5t23.5-2.5l62 17q13 4 19.5 15.5t2.5 24.5zm657 651l-466 466q-10 10-23 10t-23-10l-50-50q-10-10-10-23t10-23l393-393-393-393q-10-10-10-23t10-23l50-50q10-10 23-10t23 10l466 466q10 10 10 23t-10 23z"/></symbol>
  <symbol id="icon-list" viewBox="0 0 1792 1792" xmlns="http://www.w3.org/2000/svg"><path d="M256 1312v192q0 13-9.5 22.5t-22.5 9.5h-192q-13 0-22.5-9.5t-9.5-22.5v-192q0-13 9.5-22.5t22.5-9.5h192q13 0 22.5 9.5t9.5 22.5zm0-384v192q0 13-9.5 22.5t-22.5 9.5h-192q-13 0-22.5-9.5t-9.5-22.5v-192q0-13 9.5-22.5t22.5-9.5h192q13 0 22.5 9.5t9.5 22.5zm0-384v192q0 13-9.5 22.5t-22.5 9.5h-192q-13 0-22.5-9.5t-9.5-22.5v-192q0-13 9.5-22.5t22.5-9.5h192q13 0 22.5 9.5t9.5 22.5zm1536 768v192q0 13-9.5 22.5t-22.5 9.5h-1344q-13 0-22.5-9.5t-9.5-22.5v-192q0-13 9.5-22.5t22.5-9.5h1344q13 0 22.5 9.5t9.5 22.5zm-1536-1152v192q0 13-9.5 22.5t-22.5 9.5h-192q-13 0-22.5-9.5t-9.5-22.5v-192q0-13 9.5-22.5t22.5-9.5h192q13 0 22.5 9.5t9.5 22.5zm1536 768v192q0 13-9.5 22.5t-22.5 9.5h-1344q-13 0-22.5-9.5t-9.5-22.5v-192q0-13 9.5-22.5t22.5-9.5h1344q13 0 22.5 9.5t9.5 22.5zm0-384v192q0 13-9.5 22.5t-22.5 9.5h-1344q-13 0-22.5-9.5t-9.5-22.5v-192q0-13 9.5-22.5t22.5-9.5h1344q13 0 22.5 9.5t9.5 22.5zm0-384v192q0 13-9.5 22.5t-22.5 9.5h-1344q-13 0-22.5-9.5t-9.5-22.5v-192q0-13 9.5-22.5t22.5-9.5h1344q13 0 22.5 9.5t9.5 22.5z"/></symbol>
  <symbol id="icon-star" viewBox="0 0 1792 1792" xmlns="http://www.w3.org/2000/svg"><path d="M1728 647q0 22-26 48l-363 354 86 500q1 7 1 20 0 21-10.5 35.5t-30.5 14.5q-19 0-40-12l-449-236-449 236q-22 12-40 12-21 0-31.5-14.5t-10.5-35.5q0-6 2-20l86-500-364-354q-25-27-25-48 0-37 56-46l502-73 225-455q19-41 49-41t49 41l225 455 502 73q56 9 56 46z"/></symbol>

  <!-- Electron (32x32) -->
  <symbol id="icon-electron" viewBox="0 0 32 32" stroke-width="1.25" stroke-linecap="round" stroke="none" fill="none" fill-rule="evenodd">
    <path fill="currentColor" d="M16.3166155,18.3358593 C15.5069762,18.5107902 14.7093189,17.9962674 14.5340397,17.1866556 C14.3594452,16.3770439 14.8736432,15.5794137 15.6832825,15.4041405 C16.4929217,15.2292096 17.290579,15.7437324 17.4658582,16.5533441 C17.6407951,17.3629559 17.1262548,18.160586 16.3166155,18.3358593 Z"></path>
    <path stroke="currentColor" d="M11.7054423,7.72924079 C7.9200573,7.04629995 4.81451128,7.69646414 3.61603618,9.7527007 C2.7268637,11.2782634 3.03921758,13.3173666 4.27645322,15.4549657 M6.32821425,18.1957705 C7.8943718,19.9006249 9.96996963,21.5565889 12.4163991,22.9557106 C18.2481396,26.2909038 24.3022575,27.0886771 27.1773167,25.1467919 M29.8571429,24.0660377 C29.8571429,23.2063492 29.1535903,22.509434 28.2857143,22.509434 C27.4178383,22.509434 26.7142857,23.2063492 26.7142857,24.0660377 C26.7142857,24.9257263 27.4178383,25.6226415 28.2857143,25.6226415 C29.1535903,25.6226415 29.8571429,24.9257263 29.8571429,24.0660377 L29.8571429,24.0660377 Z"></path>
    <path stroke="currentColor" d="M26.111681,17.7066994 C28.5900052,14.8065666 29.5677707,11.8255392 28.3717915,9.77358491 C27.4971801,8.27300481 25.6069305,7.52124894 23.1780058,7.48995855 M19.7043666,7.86367207 C17.4117923,8.35023224 14.9002093,9.30797986 12.4285714,10.7215184 C6.42471468,14.1551455 2.65428623,19.1356706 3.16600907,22.5894353 M3.68571472,25.6226415 C4.55359076,25.6226415 5.25714329,24.9257263 5.25714329,24.0660377 C5.25714329,23.2063492 4.55359076,22.509434 3.68571472,22.509434 C2.81783869,22.509434 2.11428615,23.2063492 2.11428615,24.0660377 C2.11428615,24.9257263 2.81783869,25.6226415 3.68571472,25.6226415 L3.68571472,25.6226415 L3.68571472,25.6226415 Z"></path>
    <path stroke="currentColor" d="M10.1890404,25.079941 C11.4849109,28.6643405 13.604776,31 16,31 C17.7357744,31 19.3269404,29.7733976 20.5647004,27.7338484 M22.0592036,24.34604 C22.7459106,22.1722862 23.1428571,19.6025086 23.1428571,16.8490566 C23.1428571,10.0917401 20.752155,4.44064506 17.5550163,3.03441104 M16,4.25471698 C16.867876,4.25471698 17.5714286,3.55780173 17.5714286,2.69811321 C17.5714286,1.83842468 16.867876,1.14150943 16,1.14150943 C15.132124,1.14150943 14.4285714,1.83842468 14.4285714,2.69811321 C14.4285714,3.55780173 15.132124,4.25471698 16,4.25471698 Z"></path>
  </symbol>
</svg>
